<?xml version="1.0" encoding="utf-8" standalone="no"?>
<!DOCTYPE svg PUBLIC "-//W3C//DTD SVG 1.1//EN"
  "http://www.w3.org/Graphics/SVG/1.1/DTD/svg11.dtd">
<svg xmlns:xlink="http://www.w3.org/1999/xlink" width="72.72pt" height="72.288pt" viewBox="0 0 72.72 72.288" xmlns="http://www.w3.org/2000/svg" version="1.1">
 <metadata>
  <rdf:RDF xmlns:dc="http://purl.org/dc/elements/1.1/" xmlns:cc="http://creativecommons.org/ns#" xmlns:rdf="http://www.w3.org/1999/02/22-rdf-syntax-ns#">
   <cc:Work>
    <dc:type rdf:resource="http://purl.org/dc/dcmitype/StillImage"/>
    <dc:date>2025-06-21T16:24:25.950358</dc:date>
    <dc:format>image/svg+xml</dc:format>
    <dc:creator>
     <cc:Agent>
      <dc:title>Matplotlib v3.10.3, https://matplotlib.org/</dc:title>
     </cc:Agent>
    </dc:creator>
   </cc:Work>
  </rdf:RDF>
 </metadata>
 <defs>
  <style type="text/css">*{stroke-linejoin: round; stroke-linecap: butt}</style>
 </defs>
 <g id="figure_1">
  <g id="patch_1">
   <path d="M 0 72.288 
L 72.72 72.288 
L 72.72 0 
L 0 0 
L 0 72.288 
z
" style="fill: none"/>
  </g>
  <g id="axes_1">
   <g id="line2d_1">
    <path d="M 2.88 36.144 
L 7.134983 24.388438 
L 9.374448 18.835216 
L 11.16602 14.930256 
L 12.733645 12.0007 
L 14.077324 9.902597 
L 15.421003 8.221106 
L 16.540736 7.157577 
L 17.660468 6.413755 
L 18.556254 6.054521 
L 19.45204 5.907756 
L 20.347826 5.974496 
L 21.243612 6.254272 
L 22.139398 6.745106 
L 23.25913 7.65003 
L 24.378863 8.869229 
L 25.722542 10.727944 
L 27.066221 12.990166 
L 28.633846 16.091171 
L 30.425418 20.161178 
L 32.664883 25.867688 
L 35.800134 34.556072 
L 40.726957 48.191649 
L 42.966421 53.71236 
L 44.757993 57.583003 
L 46.325619 60.477283 
L 47.669298 62.541853 
L 49.012977 64.187327 
L 50.132709 65.219356 
L 51.252441 65.930697 
L 52.148227 66.26348 
L 53.044013 66.383583 
L 53.939799 66.290156 
L 54.835585 65.98386 
L 55.731371 65.466856 
L 56.851104 64.529998 
L 57.970836 63.280054 
L 59.314515 61.386495 
L 60.658194 59.092183 
L 62.225819 55.957901 
L 64.017391 51.856219 
L 66.256856 46.120927 
L 69.616054 36.779417 
L 69.84 36.144 
L 69.84 36.144 
" style="fill: none; stroke: #ffffff; stroke-width: 8; stroke-linecap: round"/>
   </g>
   <g id="line2d_2">
    <path d="M 2.88 36.144 
L 7.134983 24.388438 
L 9.374448 18.835216 
L 11.16602 14.930256 
L 12.733645 12.0007 
L 14.077324 9.902597 
L 15.421003 8.221106 
L 16.540736 7.157577 
L 17.660468 6.413755 
L 18.556254 6.054521 
L 19.45204 5.907756 
L 20.347826 5.974496 
L 21.243612 6.254272 
L 22.139398 6.745106 
L 23.25913 7.65003 
L 24.378863 8.869229 
L 25.722542 10.727944 
L 27.066221 12.990166 
L 28.633846 16.091171 
L 30.425418 20.161178 
L 32.664883 25.867688 
L 35.800134 34.556072 
L 40.726957 48.191649 
L 42.966421 53.71236 
L 44.757993 57.583003 
L 46.325619 60.477283 
L 47.669298 62.541853 
L 49.012977 64.187327 
L 50.132709 65.219356 
L 51.252441 65.930697 
L 52.148227 66.26348 
L 53.044013 66.383583 
L 53.939799 66.290156 
L 54.835585 65.98386 
L 55.731371 65.466856 
L 56.851104 64.529998 
L 57.970836 63.280054 
L 59.314515 61.386495 
L 60.658194 59.092183 
L 62.225819 55.957901 
L 64.017391 51.856219 
L 66.256856 46.120927 
L 69.616054 36.779417 
L 69.84 36.144 
L 69.84 36.144 
" clip-path="url(#p159bf981c1)" style="fill: none; stroke: #ffffff; stroke-width: 8; stroke-linecap: square"/>
   </g>
  </g>
 </g>
 <defs>
  <clipPath id="p159bf981c1">
   <rect x="2.88" y="2.88" width="66.96" height="66.528"/>
  </clipPath>
 </defs>
</svg>
